<?xml version="1.0" encoding="utf-8"?>
<svg viewBox="0.823 0.0024 30.4 16.0087" xmlns="http://www.w3.org/2000/svg">
  <path fill-rule="evenodd" d="M 28.023 6.4 C 26.563 6.401 25.288 5.413 24.923 4 L 21.256 4 C 20.474 4 19.807 4.566 19.678 5.337 L 19.546 6.127 C 19.425 6.852 19.058 7.514 18.506 8 C 19.058 8.487 19.425 9.148 19.546 9.874 L 19.678 10.663 C 19.807 11.434 20.474 12 21.256 12 L 21.724 12 C 22.344 9.615 25.313 8.796 27.069 10.525 C 27.678 11.126 28.022 11.945 28.023 12.8 C 28.028 15.263 25.364 16.808 23.228 15.581 C 22.48 15.151 21.937 14.436 21.723 13.6 L 21.256 13.6 C 19.692 13.6 18.357 12.469 18.1 10.926 L 17.968 10.137 C 17.839 9.366 17.172 8.8 16.39 8.8 L 15.122 8.8 C 14.505 11.186 11.537 12.009 9.779 10.281 C 9.365 9.874 9.069 9.362 8.924 8.8 L 7.122 8.8 C 6.502 11.185 3.533 12.004 1.777 10.275 C 1.168 9.674 0.824 8.855 0.823 8 C 0.818 5.537 3.482 3.992 5.618 5.219 C 6.366 5.649 6.909 6.364 7.123 7.2 L 8.923 7.2 C 9.537 4.814 12.504 3.987 14.264 5.712 C 14.681 6.12 14.978 6.635 15.123 7.2 L 16.39 7.2 C 17.172 7.2 17.839 6.634 17.968 5.863 L 18.1 5.073 C 18.358 3.531 19.692 2.4 21.256 2.4 L 24.924 2.4 C 25.544 0.015 28.513 -0.804 30.269 0.925 C 30.878 1.526 31.222 2.345 31.223 3.2 C 31.223 4.967 29.79 6.4 28.023 6.4 M 28.023 4.8 C 29.255 4.8 30.024 3.467 29.409 2.4 C 29.123 1.905 28.595 1.6 28.023 1.6 C 26.791 1.6 26.022 2.933 26.637 4 C 26.923 4.495 27.451 4.8 28.023 4.8 M 4.023 9.6 C 5.255 9.6 6.024 8.267 5.409 7.2 C 5.123 6.705 4.595 6.4 4.023 6.4 C 2.791 6.4 2.022 7.733 2.637 8.8 C 2.923 9.295 3.451 9.6 4.023 9.6 M 13.623 8 C 13.623 9.232 12.29 10.001 11.223 9.386 C 10.728 9.1 10.423 8.572 10.423 8 C 10.423 6.768 11.756 5.999 12.823 6.614 C 13.318 6.9 13.623 7.428 13.623 8 M 26.423 12.8 C 26.423 14.032 25.09 14.801 24.023 14.186 C 23.528 13.9 23.223 13.372 23.223 12.8 C 23.223 11.568 24.556 10.799 25.623 11.414 C 26.118 11.7 26.423 12.228 26.423 12.8" clip-rule="evenodd" style="fill: rgb(255, 0, 0); opacity: 0.5;" transform="matrix(1, 0, 0, 1, -8.881784197001252e-16, -2.6645352591003757e-15)"/>
</svg>